<svg width="33" height="33" viewBox="0 0 33 33" fill="none" xmlns="http://www.w3.org/2000/svg">
<path d="M25.8333 12.3613H12.5C11.0273 12.3613 9.83334 13.5552 9.83334 15.028V23.028C9.83334 24.5008 11.0273 25.6947 12.5 25.6947H25.8333C27.3061 25.6947 28.5 24.5008 28.5 23.028V15.028C28.5 13.5552 27.3061 12.3613 25.8333 12.3613Z" stroke="#121212" stroke-width="1.5" stroke-linecap="round" stroke-linejoin="round"/>
<path d="M19.1667 21.6947C20.6394 21.6947 21.8333 20.5008 21.8333 19.028C21.8333 17.5552 20.6394 16.3613 19.1667 16.3613C17.6939 16.3613 16.5 17.5552 16.5 19.028C16.5 20.5008 17.6939 21.6947 19.1667 21.6947Z" stroke="#121212" stroke-width="1.5" stroke-linecap="round" stroke-linejoin="round"/>
<path d="M23.1667 12.3614V9.69474C23.1667 8.9875 22.8857 8.30922 22.3856 7.80912C21.8855 7.30903 21.2072 7.02808 20.5 7.02808H7.16667C6.45942 7.02808 5.78115 7.30903 5.28105 7.80912C4.78095 8.30922 4.5 8.9875 4.5 9.69474V17.6947C4.5 18.402 4.78095 19.0803 5.28105 19.5804C5.78115 20.0805 6.45942 20.3614 7.16667 20.3614H9.83333" stroke="#121212" stroke-width="1.5" stroke-linecap="round" stroke-linejoin="round"/>
</svg>
