<svg width="33" height="33" viewBox="0 0 33 33" fill="none" xmlns="http://www.w3.org/2000/svg">
<path fill-rule="evenodd" clip-rule="evenodd" d="M3.16667 6.41675C2.75246 6.41675 2.41667 6.75253 2.41667 7.16675C2.41667 7.58096 2.75246 7.91675 3.16667 7.91675H17.0833V8.50008V15.1667V22.4167H13.1674C12.8256 20.8906 11.4627 19.7501 9.83334 19.7501C8.20402 19.7501 6.84107 20.8906 6.49925 22.4167H5.25001V17.8334C5.25001 17.4192 4.91422 17.0834 4.50001 17.0834C4.08579 17.0834 3.75001 17.4192 3.75001 17.8334V23.1667C3.75001 23.581 4.08579 23.9167 4.50001 23.9167H6.49925C6.84108 25.4429 8.20402 26.5834 9.83334 26.5834C11.4627 26.5834 12.8256 25.4429 13.1674 23.9167H17.8333H19.8326C20.1744 25.4429 21.5374 26.5834 23.1667 26.5834C24.796 26.5834 26.1589 25.4429 26.5008 23.9167H28.5C28.9142 23.9167 29.25 23.581 29.25 23.1667V15.179C29.2512 15.1082 29.2424 15.0367 29.2231 14.9668C29.2037 14.8966 29.1744 14.8306 29.1368 14.7703L25.1431 8.11421C25.0076 7.88831 24.7635 7.75008 24.5 7.75008H18.5833V7.16675C18.5833 6.75253 18.2476 6.41675 17.8333 6.41675H3.16667ZM26.5008 22.4167H27.75V15.9167H18.5833V22.4167H19.8326C20.1744 20.8906 21.5374 19.7501 23.1667 19.7501C24.796 19.7501 26.1589 20.8906 26.5008 22.4167ZM7.91667 23.1675C7.91706 24.2257 8.77503 25.0834 9.83334 25.0834C10.8919 25.0834 11.75 24.2253 11.75 23.1667C11.75 22.1082 10.8919 21.2501 9.83334 21.2501C8.77479 21.2501 7.91667 22.1082 7.91667 23.1667C7.91667 23.167 7.91667 23.1672 7.91667 23.1675ZM18.5833 14.4167V9.25008H24.0754L27.1754 14.4167H18.5833ZM23.1667 21.2501C22.1081 21.2501 21.25 22.1082 21.25 23.1667C21.25 24.2253 22.1081 25.0834 23.1667 25.0834C24.2252 25.0834 25.0833 24.2253 25.0833 23.1667C25.0833 22.1082 24.2252 21.2501 23.1667 21.2501Z" fill="#121212"/>
</svg>
