<svg width="28" height="28" viewBox="0 0 28 28" fill="none" xmlns="http://www.w3.org/2000/svg">
<path fill-rule="evenodd" clip-rule="evenodd" d="M14.7499 5.83337C14.7499 5.41916 14.4141 5.08337 13.9999 5.08337C13.5857 5.08337 13.2499 5.41916 13.2499 5.83337V13.25H5.83325C5.41904 13.25 5.08325 13.5858 5.08325 14C5.08325 14.4143 5.41904 14.75 5.83325 14.75H13.2499V22.1667C13.2499 22.5809 13.5857 22.9167 13.9999 22.9167C14.4141 22.9167 14.7499 22.5809 14.7499 22.1667V14.75H22.1666C22.5808 14.75 22.9166 14.4143 22.9166 14C22.9166 13.5858 22.5808 13.25 22.1666 13.25H14.7499V5.83337Z" fill="#121212"/>
</svg>
