<svg width="18" height="18" viewBox="0 0 18 18" fill="none" xmlns="http://www.w3.org/2000/svg">
<path fill-rule="evenodd" clip-rule="evenodd" d="M6.43823 6C6.43823 4.75736 7.44559 3.75 8.68823 3.75C9.93087 3.75 10.9382 4.75736 10.9382 6C10.9382 7.24264 9.93087 8.25 8.68823 8.25C7.44559 8.25 6.43823 7.24264 6.43823 6ZM8.68823 2.25C6.61716 2.25 4.93823 3.92893 4.93823 6C4.93823 8.07107 6.61716 9.75 8.68823 9.75C10.7593 9.75 12.4382 8.07107 12.4382 6C12.4382 3.92893 10.7593 2.25 8.68823 2.25ZM5.59724 12.5811C6.0192 12.1591 6.5915 11.922 7.18823 11.922H10.1882C10.785 11.922 11.3573 12.1591 11.7792 12.5811C12.2012 13.003 12.4382 13.5753 12.4382 14.172V15.672C12.4382 16.0863 12.774 16.422 13.1882 16.422C13.6024 16.422 13.9382 16.0863 13.9382 15.672V14.172C13.9382 13.1775 13.5431 12.2237 12.8399 11.5204C12.1366 10.8171 11.1828 10.422 10.1882 10.422H7.18823C6.19367 10.422 5.23984 10.8171 4.53658 11.5204C3.83332 12.2237 3.43823 13.1775 3.43823 14.172V15.672C3.43823 16.0863 3.77402 16.422 4.18823 16.422C4.60245 16.422 4.93823 16.0863 4.93823 15.672V14.172C4.93823 13.5753 5.17529 13.003 5.59724 12.5811Z" fill="#3E3E59"/>
</svg>
